PathFileType	4	(X/Y/Z)	C:\Users\Basilio\Documents\Thesis Gigler\squatting_fais\c3dfiles\047\SJ_pre2\markers_experimental.trc
DataRate	CameraRate	NumFrames	NumMarkers	Units	OrigDataRate	OrigDataStartFrame	OrigNumFrames
200.000000	200.000000	4	60	mm	200.000000	1431	1636
Frame#	Time	FHD			LBHD			RBHD			C7			T10			CLAV			LSHO			LUUPA			LMUPA			LDUPA			LLEP			LMEP			LRAD			LUL			LRFIN			RSHO			RUPA1			RMUPA			RDUPA			RLEP			RMEP			RRAD			RUL			RUFIN			RASI			USACR			LSACR			RSACR			LTHI1			LTHI2			LTHI3			LTHI4			LLFC			LMFC			LTIB1			LTIB2			LTIB3			LTIB4			LLMAL			LMMAL			LMT1			LMT2			LMT5			RTHI			RTHI2			RTHI3			RTHI4			RLFC			RMFC			RTIB1			RTIB2			RTIB3			RTIB4			RLMAL			RMMAL			RHEE			RMT1			RMT2			RMT5			LASI			
		X1	Y1	Z1	X2	Y2	Z2	X3	Y3	Z3	X4	Y4	Z4	X5	Y5	Z5	X6	Y6	Z6	X7	Y7	Z7	X8	Y8	Z8	X9	Y9	Z9	X10	Y10	Z10	X11	Y11	Z11	X12	Y12	Z12	X13	Y13	Z13	X14	Y14	Z14	X15	Y15	Z15	X16	Y16	Z16	X17	Y17	Z17	X18	Y18	Z18	X19	Y19	Z19	X20	Y20	Z20	X21	Y21	Z21	X22	Y22	Z22	X23	Y23	Z23	X24	Y24	Z24	X25	Y25	Z25	X26	Y26	Z26	X27	Y27	Z27	X28	Y28	Z28	X29	Y29	Z29	X30	Y30	Z30	X31	Y31	Z31	X32	Y32	Z32	X33	Y33	Z33	X34	Y34	Z34	X35	Y35	Z35	X36	Y36	Z36	X37	Y37	Z37	X38	Y38	Z38	X39	Y39	Z39	X40	Y40	Z40	X41	Y41	Z41	X42	Y42	Z42	X43	Y43	Z43	X44	Y44	Z44	X45	Y45	Z45	X46	Y46	Z46	X47	Y47	Z47	X48	Y48	Z48	X49	Y49	Z49	X50	Y50	Z50	X51	Y51	Z51	X52	Y52	Z52	X53	Y53	Z53	X54	Y54	Z54	X55	Y55	Z55	X56	Y56	Z56	X57	Y57	Z57	X58	Y58	Z58	X59	Y59	Z59	X60	Y60	Z60	

1432	7.155	194.0771026611329	1116.184326171875	-894.111999511719	36.98344421386719	1164.561401367188	-976.5810546875002	16.36152839660645	1174.341796875	-829.4605102539065	-82.19374084472658	1066.631713867188	-907.6754150390627	-334.6785583496094	876.9629516601565	-900.7866821289065	-6.658677577972414	912.4790039062502	-901.0489501953127	-30.04255867004395	981.0565185546877	-1079.395385742188	-183.4661254882813	1003.632629394531	-1189.481201171875	-180.7523345947266	960.6635742187502	-1217.752807617188	-234.8081665039063	984.2133789062502	-1234.417602539063	-283.0700988769532	939.991638183594	-1274.0966796875	-339.3356933593751	958.4736328125002	-1195.199951171875	-324.0007629394532	755.7258911132814	-1101.124633789063	-315.7310485839844	706.3833007812501	-1160.72607421875	-284.7818908691407	713.2996826171876	-1062.021240234375	-38.92545700073243	1005.339233398438	-743.5706787109376	-209.6139526367188	1037.7666015625	-639.0913085937501	-213.3731536865235	997.2985839843752	-610.5511474609376	-266.9968261718751	1022.339904785156	-600.1081542968751	-317.8410644531251	980.728210449219	-563.4667968750001	-371.5102539062501	983.3984985351565	-641.6783447265626	-269.2041931152344	767.8462524414064	-686.3844604492189	-298.9150390625001	733.2969360351564	-624.7749633789064	-268.8060302734376	695.7796630859376	-722.2915649414064	-363.6063842773438	618.3253173828126	-778.443298339844	-460.5249633789064	790.788757324219	-901.8359375000002	-486.436248779297	772.576110839844	-930.3469848632815	-487.789764404297	772.4981689453127	-872.1215820312502	-437.0074462890626	603.4928588867189	-1118.135620117188	-357.1304931640626	596.7667846679689	-1138.144409179688	-329.7346801757813	630.0979003906251	-1115.6826171875	-330.4874572753907	549.6663208007814	-1164.17724609375	-201.6380767822266	447.3295288085939	-1197.900390625	-141.9277496337891	436.8650817871095	-1085.480224609375	-191.52490234375	275.8851623535157	-1111.0537109375	-231.5000610351563	237.1968841552735	-1178.157592773438	-208.2874603271485	229.8326873779297	-1139.230712890625	-250.7193145751954	165.8168029785157	-1103.453125	-339.6836547851563	93.05767822265626	-1141.749877929688	-302.2887878417969	103.7450790405274	-1057.546875	-187.8907928466797	63.69661712646486	-1109.682006835938	-199.1532287597657	62.2898635864258	-1152.510620117188	-248.552230834961	43.95602416992188	-1189.390380859375	-411.6578674316407	577.6198730468751	-658.1469726562501	-347.4217224121094	578.3634033203126	-640.5635986328126	-327.7448120117188	603.3718872070314	-649.2389526367189	-299.6731872558594	512.7015991210939	-621.2693481445314	-176.9239044189453	441.1205444335939	-611.0314941406251	-127.0116119384766	442.6206665039064	-732.5930786132814	-151.3325805664063	317.7794189453126	-632.3772583007814	-247.0100402832032	265.0098571777344	-612.9097900390626	-205.3445434570313	249.6430816650391	-625.1624145507814	-210.3836822509766	205.6430206298829	-664.3942871093751	-327.0098266601563	89.54185485839845	-660.8403320312501	-285.3361206054688	102.2169876098633	-742.9058227539064	-382.2730407714844	52.75001144409181	-724.1234130859376	-169.8892211914063	55.63077545166017	-698.5072631835939	-178.4498901367188	57.88269424438478	-654.1150512695314	-234.0505371093751	30.90230560302735	-605.5784301757814	-372.5577697753907	613.2687988281251	-996.3825683593752	
1433	7.16	193.7338256835938	1118.570434570313	-894.5894775390627	36.43463897705079	1166.662231445313	-976.634460449219	15.69953441619873	1176.448608398438	-829.6010742187502	-82.48738861083986	1068.505737304688	-907.753112792969	-334.7098693847657	878.0802001953127	-900.714050292969	-6.531508445739748	914.4522094726565	-901.338562011719	-31.13891983032227	982.6245727539065	-1079.10791015625	-183.7918853759766	1004.852783203125	-1189.64599609375	-181.3626403808594	961.9304809570315	-1217.756103515625	-235.1057891845704	985.352478027344	-1234.525512695313	-283.3511657714844	941.0270996093752	-1273.931640625	-339.7189331054688	959.3868408203127	-1195.1181640625	-323.6499328613282	756.5343627929689	-1100.993286132813	-315.2851257324219	707.3741455078126	-1160.606811523438	-284.2637634277344	714.2590332031251	-1061.832275390625	-39.12792587280274	1007.241638183594	-743.7875976562501	-209.7833404541016	1039.01611328125	-638.9264526367189	-213.6094970703126	998.6397094726565	-610.4102783203126	-266.9568786621094	1023.619995117188	-600.1820068359376	-317.8460388183594	981.3309326171877	-563.4375000000001	-371.7118530273438	984.3355712890627	-641.4652099609376	-268.7691650390626	768.8071899414065	-686.4066772460939	-298.3968505859376	734.4747924804689	-624.9036865234376	-268.3727416992188	697.0397338867189	-722.5812988281251	-361.4664001464844	620.4219970703126	-779.0889892578127	-460.4113159179689	792.3452148437502	-901.577819824219	-486.2544250488282	773.8460083007815	-930.2793579101565	-487.534881591797	773.525085449219	-872.125915527344	-436.5932617187501	604.7742309570314	-1118.803344726563	-356.7750549316407	597.4829711914064	-1138.04150390625	-329.1557006835938	631.0089111328126	-1115.886352539063	-330.2598571777344	550.1541748046876	-1164.059326171875	-201.590560913086	447.4978637695314	-1197.704467773438	-141.8007507324219	437.0766906738282	-1085.42138671875	-191.4753875732422	275.9106140136719	-1110.921020507813	-231.5211791992188	237.2355194091797	-1178.013671875	-208.2962188720704	229.8000793457032	-1139.227294921875	-250.7090759277344	165.8057403564453	-1103.414916992188	-339.6908874511719	93.04982757568361	-1141.754516601563	-302.2755126953126	103.7603530883789	-1057.549072265625	-187.9195861816407	63.71724319458009	-1109.638305664063	-199.184066772461	62.25393295288087	-1152.526000976563	-248.6641540527344	43.96571350097657	-1189.342651367188	-411.4664916992189	578.2396240234376	-658.2029418945314	-347.1882629394532	578.8375854492189	-640.8212280273439	-327.4268188476563	603.8358764648439	-649.2975463867189	-299.4716186523438	513.3901977539064	-621.2193603515626	-176.9912719726563	441.1595458984376	-611.0241088867189	-127.5624237060547	442.5877990722657	-732.1912231445314	-151.4391479492188	317.8316345214844	-632.3441162109376	-247.1466674804688	265.0585937500001	-612.8312377929689	-205.4642639160157	249.6205444335938	-624.8775634765626	-210.5250854492188	205.6208801269532	-664.1641845703126	-327.0347595214844	89.54241943359376	-660.8557739257814	-285.4431762695313	102.2121276855469	-742.8462524414064	-382.2877197265626	52.70407104492189	-724.0862426757814	-169.7700347900391	55.39605712890626	-698.5815429687501	-178.2420501708985	57.81530761718751	-653.9900512695314	-234.0654907226563	30.84481239318848	-605.5514526367189	-370.3718872070313	616.2945556640626	-997.008728027344	
1434	7.165	193.6066894531251	1121.294555664063	-895.3417968750002	35.90446090698243	1168.87158203125	-976.6851196289065	15.29022884368897	1178.576782226563	-829.5292968750002	-83.08290100097658	1070.619140625	-907.7375488281252	-334.5294799804688	879.521179199219	-900.5963134765627	-6.854273319244387	916.3270263671877	-901.3328857421877	-31.14382362365723	984.712097167969	-1079.345092773438	-184.2809295654297	1006.375915527344	-1189.70068359375	-181.0723571777344	963.2841796875002	-1217.994750976563	-235.7139434814454	986.3240356445315	-1234.341064453125	-283.4361267089844	942.0110473632815	-1273.870727539063	-340.1044006347657	960.1641235351565	-1195.189453125	-323.4385986328126	757.5877075195314	-1100.856201171875	-314.9516601562501	708.1782226562501	-1160.510498046875	-284.0151062011719	715.2230224609376	-1061.66162109375	-39.38928222656251	1009.197387695313	-743.7591552734376	-210.0766906738282	1040.3056640625	-638.7163085937501	-213.6926422119141	999.8916015625002	-610.5460815429689	-267.1293334960938	1024.696411132813	-599.9364624023439	-317.8977355957032	982.5205078125002	-563.2642211914064	-372.0340881347657	985.2807617187502	-641.2106933593751	-268.4386596679688	770.0928955078127	-686.5299682617189	-297.7699890136719	735.5975341796876	-625.0374145507814	-268.1531677246094	698.2960205078126	-722.4763183593751	-362.1200866699219	622.1574707031251	-777.8381347656252	-460.1919250488282	793.8078613281252	-901.5344848632815	-485.8211059570314	775.2698974609377	-930.2366943359377	-487.5839843750001	775.0351562500002	-872.034118652344	-436.0963134765626	605.4263305664064	-1117.995727539063	-356.3557434082032	598.1862182617189	-1137.986572265625	-328.3931274414063	631.6177978515626	-1115.902099609375	-329.9186706542969	550.8142700195314	-1163.891479492188	-201.4636688232422	447.6315307617189	-1197.493774414063	-142.1734161376953	436.9267883300782	-1085.074340820313	-191.484130859375	275.9406127929688	-1110.8759765625	-231.3845672607422	237.2307891845704	-1178.000122070313	-208.4439849853516	229.7671813964844	-1138.8564453125	-250.7138671875001	165.8326873779297	-1103.360229492188	-339.7288818359376	93.03729248046876	-1141.716674804688	-302.2916259765626	103.7635116577149	-1057.533081054688	-187.9303588867188	63.69883346557619	-1109.630249023438	-199.1947784423829	62.26592254638673	-1152.48681640625	-248.606674194336	43.95438766479493	-1189.403930664063	-411.2589111328126	579.0389404296876	-658.1556396484376	-346.9533081054688	579.4765625000001	-640.8465576171876	-327.0893859863282	604.3580322265626	-649.2970581054689	-299.4836120605469	513.8757324218751	-620.9790649414064	-177.3321685791016	441.2908325195314	-610.6252441406251	-126.9342193603516	442.6303710937501	-732.0161132812501	-151.5632019042969	317.9176635742188	-632.3192749023439	-247.3275604248047	265.0182495117188	-612.7341308593751	-205.6038665771485	249.6604766845704	-624.7920532226564	-210.6886749267579	205.5779571533204	-664.0194702148439	-327.0454101562501	89.51112365722658	-660.7796630859376	-285.5149536132813	102.2064971923828	-742.7438964843751	-382.2916564941407	52.67476654052736	-724.0387573242189	-169.9434814453125	55.6623001098633	-698.4734497070314	-178.4325714111328	57.81561660766603	-654.0669555664064	-234.0521545410157	30.82153701782227	-605.4908447265626	-369.6079101562501	617.4566040039064	-995.757995605469	
1435	7.17	193.2342529296876	1123.910278320313	-895.8293457031252	35.02259063720704	1171.32177734375	-976.7882080078127	15.01024913787842	1180.956176757813	-829.7069091796877	-83.58470916748048	1072.597534179688	-907.6849365234377	-334.7154235839844	880.9102172851565	-900.5162353515627	-6.851845264434816	918.4644165039065	-901.309020996094	-31.63631820678712	986.6436767578127	-1079.0087890625	-185.1311950683594	1007.577026367188	-1189.433715820313	-181.4222259521485	964.654968261719	-1217.957153320313	-236.2596130371094	987.641784667969	-1234.180297851563	-283.6901855468751	943.0277099609377	-1273.784912109375	-340.4789123535157	961.0195922851565	-1195.141845703125	-323.0829467773438	758.5689086914064	-1100.781127929688	-314.5326843261719	709.1977539062501	-1160.2490234375	-283.3398742675782	716.4338378906251	-1061.557983398438	-39.72805786132813	1011.366943359375	-743.7459106445314	-210.4348144531251	1041.933349609375	-638.4811401367189	-213.9051361083985	1001.258056640625	-610.1030273437501	-267.4767761230469	1026.026000976563	-599.7716674804689	-318.0697326660157	983.5540771484377	-563.1787719726564	-372.0031433105469	986.4133911132815	-641.0636596679689	-268.1957397460938	771.5390625000002	-686.7030639648439	-297.2182006835938	736.7694702148439	-625.0720214843751	-267.8621215820313	699.3955688476564	-722.2134399414064	-364.9238281250001	622.0123901367189	-776.4675292968752	-459.5784301757814	794.560485839844	-901.6199340820315	-485.4237060546876	776.2568359375002	-930.2951660156252	-487.4707641601564	776.3769531250002	-872.1169433593752	-435.4512329101564	606.1923828125001	-1117.923950195313	-355.8688964843751	598.7714843750001	-1137.957275390625	-327.8801879882813	632.1613159179689	-1115.852783203125	-329.3375549316407	551.2852783203126	-1163.860961914063	-201.3975982666016	447.7134094238282	-1197.164306640625	-142.0673522949219	437.0305175781251	-1084.803833007813	-191.4909210205078	275.9433288574219	-1110.780883789063	-231.4864654541016	237.2719879150391	-1177.845703125	-208.4228057861329	229.7595520019532	-1138.711791992188	-250.7344360351563	165.8344268798828	-1103.353759765625	-339.7192382812501	93.00976562500001	-1141.719604492188	-302.2572631835938	103.7528457641602	-1057.48779296875	-187.9563446044922	63.69099807739259	-1109.60400390625	-199.1883850097657	62.22188568115236	-1152.51416015625	-248.5714874267579	43.94481658935548	-1189.450805664063	-411.1381835937501	579.9790649414064	-658.1896972656251	-346.7843627929688	580.1024169921876	-640.8190307617189	-326.8132934570313	605.1347656250001	-648.9519042968751	-299.5091552734376	514.2297973632814	-621.3544311523439	-177.4814910888672	441.4448242187501	-610.7702026367189	-127.2374877929688	442.7454833984376	-731.8002319335939	-151.6872863769532	317.9683532714844	-632.3121337890626	-247.4752807617188	265.1076965332032	-612.4974365234376	-205.6498413085938	249.7575988769532	-624.9484252929689	-210.8216247558594	205.5615997314454	-663.9329223632814	-327.0516357421876	89.37731933593751	-660.7144165039064	-285.5910949707032	102.2031173706055	-742.7376098632814	-382.3833312988282	52.72620010375978	-724.0830078125001	-169.7652130126953	55.42111587524415	-698.5440673828126	-178.2753143310547	57.82930374145509	-654.0363769531251	-234.0719757080079	30.82019996643067	-605.4785766601564	-371.5485839843751	616.1539916992189	-994.345886230469	
